<?xml version="1.0" standalone="no"?>
<!DOCTYPE svg PUBLIC "-//W3C//DTD SVG 20010904//EN"
 "http://www.w3.org/TR/2001/REC-SVG-20010904/DTD/svg10.dtd">
<svg version="1.0" xmlns="http://www.w3.org/2000/svg"
 width="300.000000pt" height="300.000000pt" viewBox="0 0 300.000000 300.000000"
 preserveAspectRatio="xMidYMid meet">
<metadata>
Created by potrace 1.10, written by Peter Selinger 2001-2011
</metadata>
<g transform="translate(0.000000,300.000000) scale(0.100000,-0.100000)"
fill="#000000" stroke="none">
<path d="M1304 2957 c-11 -6 -14 -34 -14 -127 0 -68 4 -121 10 -125 6 -3 10
-37 10 -75 0 -64 -2 -70 -22 -75 -13 -4 -291 -84 -618 -179 l-595 -172 -3
-947 c-2 -811 -4 -947 -16 -947 -37 0 -46 -28 -46 -138 0 -59 4 -113 8 -120
12 -18 2952 -18 2964 0 4 7 8 61 8 120 0 110 -9 138 -46 138 -12 0 -14 166
-14 1193 l0 1192 23 10 c21 9 22 17 25 128 2 89 0 119 -10 122 -23 9 -1649 10
-1664 2z m1596 -124 l0 -53 -765 0 -765 0 0 53 0 52 765 0 765 0 0 -52z
m-1521 -115 c-5 -10 -14 -18 -19 -18 -13 0 -30 34 -30 60 l0 21 30 -22 c23
-18 27 -26 19 -41z m1561 43 c0 -6 -11 -23 -24 -38 l-25 -28 -23 23 c-21 21
-21 22 -3 22 11 0 29 7 39 15 23 17 36 19 36 6z m-90 -1258 l0 -1198 -525 0
-525 0 0 433 c0 307 3 432 11 432 6 0 26 7 45 16 61 29 85 112 49 171 -9 15
-129 125 -265 243 l-249 215 0 443 -1 442 730 0 730 0 0 -1197z m-1500 1011
c0 -38 -15 -42 -34 -10 -9 13 -7 20 8 32 26 19 26 19 26 -22z m-38 -623 c-1
-3 -12 5 -25 17 -29 28 -70 42 -118 42 l-39 0 0 48 c0 26 -4 53 -8 60 -7 9
-47 12 -168 10 l-159 -3 -3 -124 c-3 -148 1 -156 70 -148 26 4 48 3 47 -1 0
-4 -55 -55 -122 -113 l-122 -107 -5 62 -5 61 -165 0 -165 0 -3 -127 c-3 -152
-2 -154 111 -145 l70 6 -42 -43 c-32 -32 -44 -54 -48 -84 -5 -40 -7 -41 -47
-44 l-41 -3 -3 -127 c-3 -153 -4 -152 124 -146 l84 3 0 -62 0 -63 -93 0 c-59
0 -97 -4 -105 -12 -8 -8 -12 -51 -12 -128 0 -77 4 -120 12 -128 8 -8 46 -12
105 -12 l93 0 0 -137 0 -138 -190 0 -190 0 2 919 3 918 575 167 575 167 5
-291 c3 -159 4 -292 2 -294z m-457 119 c-19 -21 -37 -18 -28 5 3 8 14 15 26
15 19 0 19 -1 2 -20z m195 -59 c0 -60 -34 -83 -118 -79 l-64 3 -2 58 -1 57 93
0 92 0 0 -39z m67 -63 c-22 -10 -64 -40 -92 -66 -28 -26 -66 -60 -86 -77 -66
-57 -204 -180 -254 -226 -27 -26 -85 -77 -127 -114 -80 -70 -99 -105 -78 -144
6 -12 21 -23 34 -27 39 -10 56 2 235 165 52 47 145 131 205 187 170 154 187
168 202 177 13 7 61 -33 284 -237 30 -28 93 -85 139 -126 46 -41 97 -88 115
-104 44 -40 87 -66 112 -66 23 0 60 35 67 65 4 18 5 17 6 -3 0 -13 -10 -33
-23 -45 -38 -34 -83 -67 -93 -67 -4 0 -16 17 -25 38 -12 25 -94 106 -250 248
-315 285 -293 269 -339 265 -9 0 -121 -97 -249 -213 -129 -117 -248 -225 -266
-241 -18 -15 -41 -45 -50 -67 l-18 -40 -21 20 c-13 12 -42 22 -78 26 -52 6
-60 4 -82 -16 -25 -23 -25 -23 -25 -3 0 16 8 23 30 28 29 6 60 46 60 75 0 7
14 31 31 55 34 48 35 95 1 95 -15 0 -15 2 -2 10 8 5 33 10 56 10 50 0 74 23
81 80 l6 41 24 -23 c24 -22 24 -22 58 -3 49 26 225 196 225 217 0 9 -9 23 -20
31 -21 14 -21 14 2 21 13 3 38 6 56 6 47 0 87 24 106 64 9 19 16 39 16 45 0 7
15 0 34 -15 l35 -28 -42 -18z m128 2 c43 -22 70 -25 80 -10 13 21 23 8 30 -36
5 -34 17 -58 48 -93 l42 -46 -60 50 c-33 27 -80 66 -105 88 -56 48 -63 53 -80
60 -8 3 -10 6 -5 6 6 1 28 -8 50 -19z m-385 -54 c-13 -13 -45 17 -35 34 5 8
12 6 26 -6 13 -12 16 -21 9 -28z m664 -241 c173 -151 316 -281 319 -289 3 -8
-2 -25 -12 -38 -15 -17 -23 -20 -39 -13 -11 6 -152 129 -313 275 -200 181
-299 265 -315 265 -15 0 -114 -83 -314 -265 -160 -146 -298 -269 -306 -273
-19 -11 -54 10 -54 32 0 11 69 80 178 177 97 87 239 214 314 281 199 178 150
192 542 -152z m-20 -195 l215 -195 1 -450 0 -450 -161 2 -161 2 1 216 c3 323
-6 335 -241 335 -116 0 -137 -3 -166 -20 -56 -35 -62 -63 -62 -312 l0 -223
-160 0 -160 0 0 450 1 450 277 251 277 251 62 -56 c34 -31 158 -144 277 -251z
m-1116 240 c-7 -11 -16 -20 -20 -20 -5 0 -8 9 -8 20 0 13 7 20 20 20 18 0 19
-2 8 -20z m192 -80 l0 -60 -90 0 -90 0 0 60 0 60 90 0 90 0 0 -60z m-186 -91
c-9 -15 -34 3 -34 24 0 19 1 19 20 2 11 -10 17 -21 14 -26z m1469 -119 c4 0 7
-6 7 -13 0 -8 -20 6 -45 30 -25 23 -45 45 -45 48 0 4 17 -10 38 -29 20 -20 40
-36 45 -36z m-1333 -230 l0 -60 -65 0 -65 0 0 60 0 60 65 0 65 0 0 -60z m-132
-95 c-11 -12 -38 8 -38 28 l0 21 22 -21 c12 -13 19 -25 16 -28z m172 -6 l0
-41 -28 24 -28 23 20 17 c31 26 36 22 36 -23z m0 -206 l0 -46 -25 23 -25 24
22 23 c12 13 23 23 25 23 2 0 3 -21 3 -47z m-170 -1 c0 -13 -23 -32 -37 -32
-11 0 -11 5 -3 20 10 19 40 28 40 12z m632 -9 c-8 -3 -22 -19 -33 -37 -10 -17
-19 -24 -19 -16 0 24 29 60 48 59 12 0 13 -2 4 -6z m296 -9 c12 -8 22 -24 22
-36 0 -19 -2 -18 -22 8 -12 16 -27 32 -33 36 -7 5 -7 8 0 8 6 0 21 -7 33 -16z
m-798 -74 l0 -60 -65 0 -65 0 0 60 0 60 65 0 65 0 0 -60z m775 36 c13 -19 15
-58 13 -235 l-3 -212 -153 -2 -152 -2 0 219 c0 190 2 222 17 238 14 16 33 18
139 18 119 0 124 -1 139 -24z m-301 -455 c18 -19 30 -21 159 -21 117 0 144 3
159 17 10 9 18 22 18 29 0 7 5 16 12 20 6 4 8 3 4 -4 -3 -5 6 -24 20 -41 l26
-31 156 0 c145 0 157 1 178 21 l23 22 31 -27 32 -26 499 0 c422 0 504 2 529
15 15 8 31 20 33 27 4 9 16 2 37 -20 30 -32 31 -35 28 -115 l-3 -82 -1445 0
-1445 0 -3 85 c-3 84 -2 86 28 115 l30 29 23 -22 c22 -21 32 -22 207 -22 175
0 185 1 207 22 l23 21 23 -21 c22 -21 33 -22 177 -22 213 0 199 -17 202 249
l2 206 6 -201 c4 -180 7 -204 24 -223z m-436 305 l-3 -25 -25 19 -25 19 25 24
c23 22 25 22 28 6 2 -10 2 -30 0 -43z" fill="black"/>
<path d="M1496 2464 c-20 -20 -23 -233 -4 -252 9 -9 111 -12 400 -12 373 0
388 1 398 19 5 11 10 67 10 124 0 88 -3 106 -18 120 -17 15 -59 17 -395 17
-328 0 -378 -2 -391 -16z m721 -124 l0 -60 -329 0 -328 0 0 60 0 60 328 0 329
0 0 -60z" />
<path d="M2431 2466 c-8 -9 -11 -55 -9 -137 l3 -124 165 0 165 0 3 124 c2 82
-1 128 -9 137 -9 11 -45 14 -159 14 -114 0 -150 -3 -159 -14z m251 -126 l3
-60 -92 0 -93 0 0 60 0 60 89 0 89 0 4 -60z" />
<path d="M1492 2058 c-19 -19 -16 -232 4 -252 13 -13 42 -16 159 -16 117 0
146 3 159 16 20 20 23 233 4 252 -8 8 -59 12 -163 12 -104 0 -155 -4 -163 -12z
m258 -128 l0 -60 -95 0 -95 0 0 60 0 60 95 0 95 0 0 -60z"/>
<path d="M1962 2058 c-8 -8 -12 -51 -12 -130 0 -106 2 -118 19 -128 11 -5 82
-10 159 -10 176 0 172 -3 172 139 0 56 -5 111 -10 122 -10 17 -23 19 -163 19
-106 0 -157 -4 -165 -12z m256 -128 l1 -60 -95 0 -94 0 0 60 0 60 94 0 93 0 1
-60z"/>
<path d="M2427 2064 c-4 -4 -7 -63 -7 -130 0 -112 2 -124 19 -134 31 -16 296
-13 310 4 8 9 11 55 9 137 l-3 124 -161 3 c-88 1 -163 -1 -167 -4z m255 -134
l-4 -60 -89 0 -89 0 0 60 0 60 93 0 92 0 -3 -60z"/>
<path d="M1962 1658 c-8 -8 -12 -51 -12 -128 0 -77 4 -120 12 -128 8 -8 59
-12 165 -12 140 0 153 2 163 19 5 11 10 67 10 125 0 82 -3 108 -16 120 -13 13
-42 16 -163 16 -101 0 -151 -4 -159 -12z m255 -128 l0 -60 -94 0 -93 0 0 60 0
60 94 0 94 0 -1 -60z"/>
<path d="M2432 1658 c-8 -8 -12 -53 -12 -135 0 -119 1 -123 23 -128 12 -3 87
-4 167 -3 l145 3 3 124 c2 82 -1 128 -9 137 -15 19 -299 20 -317 2z m250 -128
l3 -60 -92 0 -93 0 0 60 0 60 89 0 89 0 4 -60z"/>
<path d="M1962 1248 c-8 -8 -12 -51 -12 -130 0 -106 2 -118 19 -128 11 -5 82
-10 159 -10 176 0 172 -3 172 139 0 56 -5 111 -10 122 -10 17 -23 19 -163 19
-106 0 -157 -4 -165 -12z m256 -128 l1 -60 -95 0 -94 0 0 60 0 60 94 0 93 0 1
-60z" />
<path d="M2427 1254 c-4 -4 -7 -63 -7 -130 0 -112 2 -124 19 -134 29 -15 283
-13 304 3 15 11 17 28 15 137 l-3 125 -161 3 c-88 1 -163 -1 -167 -4z m255
-130 c1 -31 1 -58 -1 -60 -2 -2 -44 -4 -93 -4 l-88 0 0 60 0 60 89 0 89 0 4
-56z"/>
<path d="M1962 848 c-8 -8 -12 -51 -12 -128 0 -77 4 -120 12 -128 8 -8 59 -12
165 -12 140 0 153 2 163 19 5 11 10 67 10 125 0 82 -3 108 -16 120 -13 13 -42
16 -163 16 -101 0 -151 -4 -159 -12z m255 -128 l0 -60 -94 0 -93 0 0 60 0 60
94 0 94 0 -1 -60z"/>
<path d="M2432 848 c-8 -8 -12 -53 -12 -135 0 -119 1 -123 23 -128 12 -3 87
-4 167 -3 l145 3 3 124 c2 82 -1 128 -9 137 -15 19 -299 20 -317 2z m248 -128
l0 -60 -90 0 -90 0 0 60 0 60 90 0 90 0 0 -60z"/>
<path d="M327 2064 c-13 -13 -8 -249 5 -262 18 -18 302 -17 317 2 8 9 11 55 9
137 l-3 124 -161 3 c-88 1 -163 -1 -167 -4z m296 -49 c9 -23 -9 -26 -28 -5
-17 19 -17 20 2 20 12 0 23 -7 26 -15z m-43 -85 l0 -60 -90 0 -90 0 0 60 0 60
90 0 90 0 0 -60z m36 -88 c-11 -12 -19 -13 -27 -5 -8 8 -4 15 13 27 28 20 39
3 14 -22z m-229 13 c3 -9 3 -19 -1 -22 -7 -7 -36 16 -36 28 0 15 30 10 37 -6z" />
<path d="M1001 1246 c-8 -9 -11 -57 -9 -147 l3 -134 154 -3 c104 -2 158 1 167
9 19 15 20 259 2 277 -18 18 -302 17 -317 -2z m66 -54 c-23 -24 -27 -37 -27
-86 0 -47 4 -61 25 -81 l24 -25 -29 0 c-30 0 -32 3 -32 55 0 14 0 57 1 95 l1
70 32 0 32 0 -27 -28z m221 -84 l3 -108 -32 0 -31 0 23 19 c18 14 23 31 27 77
4 54 1 63 -24 93 l-27 33 29 -4 29 -3 3 -107z m-38 2 l0 -70 -89 0 -89 0 -4
70 -3 70 93 0 92 0 0 -70z"/>
<path d="M92 234 c-27 -19 -31 -87 -6 -122 l15 -22 1399 0 1399 0 15 22 c9 12
16 41 16 65 0 79 125 73 -1430 73 -1238 0 -1388 -2 -1408 -16z m2818 -61 l0
-58 -1410 0 -1410 0 0 58 0 57 1410 0 1410 0 0 -57z"/>
</g>
</svg>
